# xmcd
#
# Track frame offsets:
# 150
# 16159
# 34868
# 53616
# 70634
# 86500
# 101102
# 120218
# 131278
# 148610
# 162948
# 182437
# 206275
#
# Disc length: 2906 seconds
#
#
# Revision: 2
# Processed by: cddbd v1.5.1PL2 Copyright (c) Steve Scherf et al.
# Submitted via: FreeRIP 2.943 
#
DISCID=9a0b580d
DTITLE=Story of the Year - In the Wake of Determination
DYEAR=2005
DGENRE=Rock
TTITLE0=We Don't Care Anymore
TTITLE1=Take me Back
TTITLE2=Our Time is Now
TTITLE3=Taste the Poison
TTITLE4=Stereo
TTITLE5=Five Against the World
TTITLE6=Sleep
TTITLE7=Meathead
TTITLE8=March of the Dead
TTITLE9=Pay Your Enemy
TTITLE10=Wake up the Voiceless
TTITLE11="Is This my Fate?" he Asked Them
TTITLE12=Long Empty Road (Bonus Track)
EXTD=
EXTT0=
EXTT1=
EXTT2=
EXTT3=
EXTT4=
EXTT5=
EXTT6=
EXTT7=
EXTT8=
EXTT9=
EXTT10=
EXTT11=
EXTT12=
PLAYORDER=
